<?xml version="1.0" encoding="utf-8"?>
<!DOCTYPE svg PUBLIC "-//W3C//DTD SVG 1.1//EN" "http://www.w3.org/Graphics/SVG/1.1/DTD/svg11.dtd">
<svg version="1.1" xmlns="http://www.w3.org/2000/svg" xmlns:xlink="http://www.w3.org/1999/xlink" width="100%" height="100%" viewBox="-50 -100 400 200">
 <title>comparison axial lateral chromatic aberration</title>
 <desc>Comparison of an ideal image of a ring (1) and ones with only axial (2) and only lateral (3) chromatic aberration by CMG Lee.</desc>
 <style type="text/css">
text { fill:#000000; stroke:none; cursor:default; }
.r   { stroke:#cc0000; }
.g   { stroke:#009900; }
.b   { stroke:#0000ff; }
 </style>
 <defs>
  <filter id="filter_blur1" x="-50%" y="-50%" width="200%" height="200%"><feGaussianBlur in="SourceGraphic" stdDeviation="2"/></filter>
  <filter id="filter_blur2" x="-50%" y="-50%" width="200%" height="200%"><feGaussianBlur in="SourceGraphic" stdDeviation="3"/></filter>
  <linearGradient id="grad_screen" x1="0%" y1="0%" x2="100%" y2="0%">
   <stop offset="10%" stop-color="#ffcc00" stop-opacity="1"/>
   <stop offset="90%" stop-color="#ffcc00" stop-opacity="0"/>
  </linearGradient>
  <linearGradient id="grad_fade" x1="0%" y1="0%" x2="100%" y2="0%">
   <stop offset="10%" stop-color="#ffffff" stop-opacity="1"/>
   <stop offset="90%" stop-color="#ffffff" stop-opacity="0"/>
  </linearGradient>
  <rect   id="rect" x="0" y="-90" width="20" height="180"/>
  <circle id="ring" cx="0" cy="0" r="20" stroke-width="10"/>
 </defs>
 <circle cx="0" cy="0" r="9999" fill="#ffffff"/>
 <g font-family="Helvetica,Arial,sans-serif" font-size="40" text-anchor="middle" stroke-linejoin="bevel" stroke-width="2" fill="none">
  <path d="M 0,-100 a 800,800 0 0 0 0,200 a 800,800 0 0 0 0,-200" fill="#66ccff"/>
  <use xlink:href="#rect" fill="url(#grad_screen)" transform="translate(200,0)"/>
  <g transform="matrix(1,-0.4 0,1 0,0)" stroke-opacity="0.5">
   <path d="M -50,-54 H 0 L 200,  0 L 0,54 H -50" class="r"/>
   <path d="M -50,-52 H 0 L 200,  0 L 0,52 H -50" class="g"/>
   <path d="M -50,-50 H 0 L 200,  0 L 0,50 H -50" class="b"/>
  </g>
  <g stroke-dasharray="2,2">
   <path d="M -50,-54 H 0 L 240,0 L 0,54 H -50" class="r"/>
   <path d="M -50,-52 H 0 L 220,0 L 0,52 H -50" class="g"/>
   <path d="M -50,-50 H 0 L 200,0 L 0,50 H -50" class="b"/>
  </g>
  <g transform="matrix(1,0.4 0,1 0,0)" stroke-dasharray="6,2">
   <path d="M -50,-54 H 0 L 200,  0 L 0,54 H -50" class="r"/>
   <path d="M -50,-52 H 0 L 200,-10 L 0,52 H -50" class="g"/>
   <path d="M -50,-50 H 0 L 200,-20 L 0,50 H -50" class="b"/>
  </g>
  <g transform="translate(280,0)">
   <g transform="translate(0,-70)">
    <text x="50" y="0.7ex">1</text>
    <use xlink:href="#ring" class="r"/>
    <use xlink:href="#ring" class="g" stroke-opacity="0.5"/>
    <use xlink:href="#ring" class="b" stroke-opacity="0.3"/>
   </g>
   <g>
    <text x="50" y="0.7ex">2</text>
    <use xlink:href="#ring" class="r"                      filter="url(#filter_blur2)"/>
    <use xlink:href="#ring" class="g" stroke-opacity="0.5" filter="url(#filter_blur1)"/>
    <use xlink:href="#ring" class="b" stroke-opacity="0.3"/>
   </g>
   <g transform="translate(0,70)">
    <text x="50" y="0.7ex">3</text>
    <use xlink:href="#ring" transform="scale(1.15)" class="r"/>
    <use xlink:href="#ring" transform="scale(1.10)" class="g" stroke-opacity="0.5"/>
    <use xlink:href="#ring" transform="scale(1.00)" class="b" stroke-opacity="0.3"/>
   </g>
  </g>
  <use xlink:href="#rect" fill="url(#grad_fade)" transform="translate(-50,0)"/>
 </g>
</svg>
